<svg viewBox="0 0 96 96" xmlns="http://www.w3.org/2000/svg" xmlns:xlink="http://www.w3.org/1999/xlink" id="Icons_BranchingDiagram" overflow="hidden"><style>
.MsftOfcThm_Text2_Fill_v2 {
 fill:currentColor; 
}
</style>
<circle cx="48" cy="22" r="8" class="MsftOfcThm_Text2_Fill_v2" stroke="none" stroke-width="1" stroke-linecap="butt" stroke-linejoin="miter" stroke-miterlimit="4" fill="currentColor" fill-opacity="1"/><circle cx="48" cy="74" r="8" class="MsftOfcThm_Text2_Fill_v2" stroke="none" stroke-width="1" stroke-linecap="butt" stroke-linejoin="miter" stroke-miterlimit="4" fill="currentColor" fill-opacity="1"/><circle cx="74" cy="22" r="8" class="MsftOfcThm_Text2_Fill_v2" stroke="none" stroke-width="1" stroke-linecap="butt" stroke-linejoin="miter" stroke-miterlimit="4" fill="currentColor" fill-opacity="1"/><path d="M73 34 73 46 50 46 50 33.82C48.6775 34.06 47.3225 34.06 46 33.82L46 46 23 46 23 34C22.67 34 22.34 34 22 34 20.9878 33.9936 19.9802 33.8627 19 33.61L19 50 46 50 46 62.18C47.3225 61.94 48.6775 61.94 50 62.18L50 50 77 50 77 33.61C76.0198 33.8627 75.0122 33.9936 74 34 73.66 34 73.33 34 73 34Z" class="MsftOfcThm_Text2_Fill_v2" stroke="none" stroke-width="1" stroke-linecap="butt" stroke-linejoin="miter" stroke-miterlimit="4" fill="currentColor" fill-opacity="1"/><circle cx="22" cy="22" r="8" class="MsftOfcThm_Text2_Fill_v2" stroke="none" stroke-width="1" stroke-linecap="butt" stroke-linejoin="miter" stroke-miterlimit="4" fill="currentColor" fill-opacity="1"/></svg>